<svg xmlns="http://www.w3.org/2000/svg" viewBox="0 0 512.001 512.001"><path d="M498.808 377.784l-63.633-63.647c-16.978-16.978-46.641-17.007-63.647 0l-10.611 10.611 127.284 127.277 10.607-10.607c17.619-17.62 17.56-46.104 0-63.634zM339.116 345.37c-13.39 10.373-32.492 9.959-44.727-2.303L168.572 217.163c-12.263-12.263-12.676-31.379-2.303-44.736L39.278 45.443c-54.631 63.68-52.495 159.633 7.8 219.928l199.103 199.19c57.86 57.858 152.635 65.532 219.932 7.797L339.116 345.37zM197.503 76.391L133.87 12.744c-16.978-16.978-46.641-17.007-63.647 0L59.612 23.355l127.284 127.277 10.607-10.608c17.618-17.618 17.56-46.102 0-63.633z" fill="#ED9121"/></svg>